<svg xmlns="http://www.w3.org/2000/svg" xmlns:xlink="http://www.w3.org/1999/xlink" viewBox="0 0 3412.53 1023.88"><defs><linearGradient id="a" x1="114.07" y1="563.83" x2="1125.23" y2="425.9" gradientTransform="matrix(1, 0, 0, -1, -0.24, 1023.94)" gradientUnits="userSpaceOnUse"><stop offset="0" stop-color="#29abe2"/><stop offset="0.35" stop-color="aqua" stop-opacity="0.7"/><stop offset="0.8" stop-color="aqua" stop-opacity="0.2"/></linearGradient><linearGradient id="b" x1="714.08" y1="510.99" x2="1031.82" y2="579" gradientTransform="matrix(1, 0, 0, -1, -0.24, 1023.94)" gradientUnits="userSpaceOnUse"><stop offset="0" stop-color="#53e3f4" stop-opacity="0.43"/><stop offset="0.72" stop-color="#00c9ea"/><stop offset="1" stop-color="#f2f2f2"/></linearGradient></defs><title>logo</title><path d="M1020.53,696.42,921.4,233.65,764.76,252C637.15,267,356.24,201,151.88,72l-1.37-.86L0,838.6H0C320.91,651.47,659.49,601.23,816.76,642.69Z" style="fill:url(#a)"/><path d="M771.33,1023.88c90.26-60.09,299.75-118.3,242.75-376.77L919.41,217.85C888.18,76.22,665.76,0,665.76,0Z" style="fill:url(#b)"/><path d="M1369.76,354.08v313h-30.32V517.74h-159.2V667.12h-30.32v-313h30.32V487.41h159.2V354.08Z" style="fill:#2b2b2b"/><path d="M1603.43,665.34l-9.81,1.78q-15.61,2.23-32.33,4.91a210,210,0,0,1-33.22,2.68,161.4,161.4,0,0,1-40.13-4.91,77.52,77.52,0,0,1-33.89-18.51q-14.71-13.6-23.19-37.23t-7.58-61.12a238.88,238.88,0,0,1,2.9-31,178.07,178.07,0,0,1,7.13-29.21,113.92,113.92,0,0,1,11.82-25,77.78,77.78,0,0,1,16.5-18.73,98.75,98.75,0,0,1,27.42-12,117.21,117.21,0,0,1,31.88-4.46,122,122,0,0,1,33.45,4.68,63.59,63.59,0,0,1,28.09,16.28q15.15,15.17,22.74,44.37t6.24,68.45H1453.6q.89,23.64,7.58,38.79T1478.13,629a57.76,57.76,0,0,0,23.19,12,106.39,106.39,0,0,0,26.75,3.34,219.79,219.79,0,0,0,31.21-2.23q15.6-2.23,29-4.46,3.56-.89,6.46-1.56t4.68-1.12ZM1478.57,474.11q-10.7,7.63-16.28,24.23a176.8,176.8,0,0,0-7.8,37.69H1582q-.45-21.53-5.8-36.57T1561.06,475v.45a41.29,41.29,0,0,0-17.84-9.64,84.44,84.44,0,0,0-22.3-2.92,93,93,0,0,0-23.63,2.92A56.93,56.93,0,0,0,1478.57,474.11Z" style="fill:#2b2b2b"/><path d="M1704.21,352.3v313h-30.32v-313Z" style="fill:#2b2b2b"/><path d="M1813,352.3v313h-30.32v-313Z" style="fill:#2b2b2b"/><path d="M1979.76,433.94q27.64.9,46.82,12t29,33.44a164.18,164.18,0,0,1,9.59,34.56,237.24,237.24,0,0,1,3.34,40.36,224.14,224.14,0,0,1-3.34,39,164.75,164.75,0,0,1-9.59,34.11,68.05,68.05,0,0,1-15.38,22.53,75.66,75.66,0,0,1-21.63,14.49,98.13,98.13,0,0,1-25.42,7.36,180.12,180.12,0,0,1-26.76,2q-28.09-1.34-47.49-12.26t-28.76-32.78a155,155,0,0,1-9.36-34.78,254.78,254.78,0,0,1-3.12-40.13,239.56,239.56,0,0,1,3.12-39,164.76,164.76,0,0,1,9.36-34.56,64,64,0,0,1,15.62-22.34,82.67,82.67,0,0,1,21.63-14.27,101,101,0,0,1,25.42-7.58A166.75,166.75,0,0,1,1979.76,433.94Zm-.89,30.32a101.84,101.84,0,0,0-36.34,5.57,39.64,39.64,0,0,0-24.3,22.52v-.45a117.16,117.16,0,0,0-7.8,28.54,221,221,0,0,0-2.45,33.44,218.52,218.52,0,0,0,2.68,34.56,131.64,131.64,0,0,0,7.58,28.76v-.45a37.22,37.22,0,0,0,17.84,19.4q12.48,6.47,31.21,7.36a106.74,106.74,0,0,0,18.06-1.56,71.61,71.61,0,0,0,17.17-5.13A62.19,62.19,0,0,0,2017,627.9a42.28,42.28,0,0,0,10.48-13,141.19,141.19,0,0,0,7.8-28.32,184.32,184.32,0,0,0,2.9-32.33,198.51,198.51,0,0,0-2.9-34.34,163.18,163.18,0,0,0-7.8-29.43v.42a38.3,38.3,0,0,0-17.84-19.62q-12.49-6.65-30.76-7.09Z" style="fill:#2b2b2b"/><path d="M2120.69,480.28l60.2-126.64q4-8,8.7-15.83a72.65,72.65,0,0,1,10.93-14,52.16,52.16,0,0,1,14.72-10.26,44.25,44.25,0,0,1,19.17-4h169a45.75,45.75,0,0,1,19.4,4,58,58,0,0,1,15.38,10.26A67.9,67.9,0,0,1,2449.76,338a94.24,94.24,0,0,1,8,16.5l57.52,126.2-27.65,12-17.39-37.9H2332.95v91h144.48v30.32H2332.95v92.31h181.49v30.32H2121.13V668.46h181.49V576.15H2158.14V545.83h144.48v-91H2165.76l-18.28,38.35ZM2180,424.54h276l-26.31-58a64,64,0,0,0-10-18.51q-6.47-8.25-16.28-8.25h-169q-8.93,0-15.38,8.92A148.34,148.34,0,0,0,2207.66,367Z" style="fill:#2b2b2b"/><path d="M2623.24,701.94V406.7h-63.32V376.38h157V406.7H2653.6V701.94Zm88.74-367H2565.76V304.59H2712ZM2567.5,699.23l6.26-271.12,30.32.89-6.24,271.12Zm111.93,2.71V428.55h30.33V701.94Zm289,.45h-55.74a54.26,54.26,0,0,1-21.93-4.45,56.49,56.49,0,0,1-29.88-29.88,54.18,54.18,0,0,1-4.46-21.85V545.38q-6.25,32.56-17.61,57.08a186.51,186.51,0,0,1-27.42,43.25,176,176,0,0,1-36.12,32.11,318.45,318.45,0,0,1-43.22,24.12l-12-28.09a224.28,224.28,0,0,0,45-26.09,144.16,144.16,0,0,0,35.23-38.57Q2815,586,2823.47,553.9t8.47-77.14V370.58h30.32V476.71q0,36.12-5.35,64.66h29.85V646.16a24.69,24.69,0,0,0,7.58,18.51,25.3,25.3,0,0,0,18.28,7.36h55.74ZM2927,569.06V345.16a16.79,16.79,0,0,0-16.17-17.39q-.61,0-1.22,0H2792.25a16.79,16.79,0,0,0-17.39,16.17q0,.61,0,1.22V569h-30.32V345.16a45.78,45.78,0,0,1,3.79-18.51,48.3,48.3,0,0,1,25.43-25.41,45.87,45.87,0,0,1,18.51-3.79h117.28a45.9,45.9,0,0,1,18.51,3.79,48.3,48.3,0,0,1,25.42,25.42,45.9,45.9,0,0,1,3.79,18.51V569Z" style="fill:#2b2b2b"/><path d="M3045.53,350.52a56.6,56.6,0,0,1,4.24-21.85,54.14,54.14,0,0,1,11.82-17.84,57.17,57.17,0,0,1,17.84-12,54.25,54.25,0,0,1,21.85-4.46h223.85a54.3,54.3,0,0,1,21.85,4.46,56.49,56.49,0,0,1,29.88,29.88,54.31,54.31,0,0,1,4.46,21.85v85.17a54.26,54.26,0,0,1-4.46,21.85A56.49,56.49,0,0,1,3347,487.46a54.2,54.2,0,0,1-21.85,4.46h-49.94l137.34,72.24-13.82,27.2-84.28-44.15V701h-30.32V531.11l-74.92-39.24h-.43a212.19,212.19,0,0,1-31,24.53,413.49,413.49,0,0,1-39.46,22.74l.45,36.12q.44,25-5.13,44.15a103.6,103.6,0,0,1-17.17,34.34,121.87,121.87,0,0,1-29.21,27A238.07,238.07,0,0,1,3046,702.38l-11.59-27.65a203.83,203.83,0,0,0,32.78-17.39,96.88,96.88,0,0,0,23.19-21.18A81.31,81.31,0,0,0,3104,609.4q4.45-14.93,4.46-34.11L3108,553q-20.52,8.48-43.25,16.28t-49.05,14.94l-8-29.43q49.94-13.38,87.85-29.21t64.66-33.67h-58.86a54.15,54.15,0,0,1-21.85-4.46,57,57,0,0,1-17.84-12,54,54,0,0,1-11.88-17.9,56.55,56.55,0,0,1-4.24-21.85Zm30.32,30.32h120.84V324.65h-95.43a24.41,24.41,0,0,0-17.84,7.58,24.9,24.9,0,0,0-7.58,18.28Zm0,54.85a24.89,24.89,0,0,0,7.58,18.28,24.38,24.38,0,0,0,17.84,7.58h95.43V411.16H3075.86Zm151.17-111v56.15h124V350.52a25.88,25.88,0,0,0-25.86-25.86Zm98.1,136.9A25.88,25.88,0,0,0,3351,435.73V411.16H3227v50.39Z" style="fill:#2b2b2b"/></svg>